<svg width="265.5mm" height="256mm" viewBox="0 0 265.5 256" xmlns="http://www.w3.org/2000/svg" version="1.1" preserveAspectRatio="xMidYMid meet"><g id="svgGroup" stroke-linecap="round" fill-rule="evenodd" font-size="9pt" stroke="#000" stroke-width="0.25mm" fill="none" style="stroke:#000;stroke-width:0.25mm;fill:none"><path d="M 30.563 253 L 55.938 253 L 55.938 256 L 86.5 256 L 86.5 231.313 L 83.5 231.313 L 83.5 205.938 L 86.5 205.938 L 86.5 179.563 L 83.5 179.563 L 83.5 154.188 L 86.5 154.188 L 86.5 129.5 L 55.938 129.5 L 55.938 132.5 L 30.563 132.5 L 30.563 129.5 L 0 129.5 L 0 154.188 L 3 154.188 L 3 179.563 L 0 179.563 L 0 205.938 L 3 205.938 L 3 231.313 L 0 231.313 L 0 256 L 30.563 256 L 30.563 253 Z" id="front_outsideCutPath" stroke="#FF0000" stroke-width="0.1" style="stroke:#FF0000;stroke-width:0.1" vector-effect="non-scaling-stroke"/><path d="M 55.858 199.284 L 54.455 199.284 L 54.455 193.295 Q 54.455 192.573 54.246 192.085 A 1.668 1.668 0 0 0 53.94 191.605 A 1.581 1.581 0 0 0 53.292 191.191 Q 52.884 191.048 52.327 191.048 A 4.244 4.244 0 0 0 51.532 191.117 Q 51.09 191.201 50.75 191.389 A 1.977 1.977 0 0 0 50.198 191.833 Q 49.522 192.619 49.522 194.427 L 49.522 199.284 L 48.12 199.284 L 48.12 190.026 L 49.26 190.026 L 49.488 191.293 L 49.556 191.293 A 2.839 2.839 0 0 1 50.668 190.281 A 3.414 3.414 0 0 1 50.764 190.233 A 3.797 3.797 0 0 1 52.115 189.872 A 4.591 4.591 0 0 1 52.496 189.857 A 5.536 5.536 0 0 1 53.438 189.932 Q 53.947 190.02 54.35 190.211 A 2.52 2.52 0 0 1 55.013 190.663 A 2.43 2.43 0 0 1 55.605 191.593 Q 55.858 192.274 55.858 193.244 L 55.858 199.284 Z M 28.919 190.026 L 28.919 191.115 L 26.562 191.115 L 26.562 199.284 L 25.16 199.284 L 25.16 191.115 L 23.505 191.115 L 23.505 190.482 L 25.16 189.975 L 25.16 189.46 Q 25.16 186.047 28.142 186.047 A 4.516 4.516 0 0 1 28.781 186.096 Q 29.092 186.14 29.438 186.226 A 9.077 9.077 0 0 1 29.865 186.343 L 29.502 187.466 Q 28.926 187.28 28.469 187.226 A 3.016 3.016 0 0 0 28.117 187.204 A 1.891 1.891 0 0 0 27.661 187.256 A 1.214 1.214 0 0 0 26.943 187.732 Q 26.598 188.211 26.566 189.215 A 6.621 6.621 0 0 0 26.562 189.426 L 26.562 190.026 L 28.919 190.026 Z M 62.995 198.127 L 62.995 199.199 A 1.379 1.379 0 0 1 62.832 199.264 Q 62.657 199.322 62.408 199.367 A 5.245 5.245 0 0 1 62.324 199.381 Q 61.88 199.453 61.526 199.453 Q 58.839 199.453 58.839 196.623 L 58.839 191.115 L 57.513 191.115 L 57.513 190.439 L 58.839 189.857 L 59.431 187.88 L 60.242 187.88 L 60.242 190.026 L 62.928 190.026 L 62.928 191.115 L 60.242 191.115 L 60.242 196.564 Q 60.242 197.151 60.438 197.547 A 1.36 1.36 0 0 0 60.639 197.848 A 1.303 1.303 0 0 0 61.439 198.274 A 1.874 1.874 0 0 0 61.728 198.295 A 4.605 4.605 0 0 0 62.403 198.247 A 4.245 4.245 0 0 0 62.446 198.241 Q 62.793 198.186 62.995 198.127 Z M 35.939 189.958 L 35.745 191.259 Q 35.17 191.132 34.731 191.132 Q 33.607 191.132 32.809 192.044 A 3.202 3.202 0 0 0 32.037 193.842 A 4.256 4.256 0 0 0 32.011 194.317 L 32.011 199.284 L 30.609 199.284 L 30.609 190.026 L 31.766 190.026 L 31.926 191.74 L 31.994 191.74 A 4.735 4.735 0 0 1 32.523 190.984 A 3.617 3.617 0 0 1 33.236 190.347 Q 33.962 189.857 34.832 189.857 A 6.438 6.438 0 0 1 35.409 189.881 A 4.698 4.698 0 0 1 35.939 189.958 Z M 44.521 198.181 A 3.912 3.912 0 0 0 44.987 197.542 Q 45.662 196.387 45.662 194.646 A 8.23 8.23 0 0 0 45.659 194.424 Q 45.638 193.653 45.471 192.998 A 4.366 4.366 0 0 0 44.517 191.149 A 3.671 3.671 0 0 0 42.813 190.05 A 4.712 4.712 0 0 0 41.43 189.857 A 5.446 5.446 0 0 0 40.451 189.941 A 3.709 3.709 0 0 0 38.287 191.119 Q 37.155 192.382 37.155 194.646 A 7.015 7.015 0 0 0 37.243 195.782 A 5.187 5.187 0 0 0 37.679 197.197 A 4.609 4.609 0 0 0 37.781 197.397 A 3.796 3.796 0 0 0 39.166 198.87 A 3.905 3.905 0 0 0 40.062 199.268 A 4.503 4.503 0 0 0 41.37 199.453 A 5.445 5.445 0 0 0 42.321 199.373 A 3.738 3.738 0 0 0 44.521 198.181 Z M 38.608 194.646 A 7.101 7.101 0 0 0 38.676 195.661 Q 38.75 196.176 38.907 196.593 A 2.942 2.942 0 0 0 39.318 197.349 A 2.298 2.298 0 0 0 40.815 198.231 A 3.483 3.483 0 0 0 41.404 198.279 A 3.257 3.257 0 0 0 42.264 198.172 A 2.267 2.267 0 0 0 43.495 197.354 A 3.01 3.01 0 0 0 43.964 196.441 Q 44.209 195.691 44.209 194.646 A 6.997 6.997 0 0 0 44.142 193.649 Q 44.069 193.142 43.915 192.731 A 2.887 2.887 0 0 0 43.495 191.964 A 2.307 2.307 0 0 0 42.061 191.109 A 3.537 3.537 0 0 0 41.387 191.048 A 3.337 3.337 0 0 0 40.557 191.145 A 2.233 2.233 0 0 0 39.309 191.952 Q 38.805 192.602 38.663 193.712 A 7.41 7.41 0 0 0 38.608 194.646 Z" id="front_labelLayer" stroke="#777777" fill="#777777" style="stroke:#777777;fill:#777777" vector-effect="non-scaling-stroke"/><path d="M 120.063 253 L 145.438 253 L 145.438 256 L 173 256 L 173 231.813 L 176 231.813 L 176 205.438 L 173 205.438 L 173 180.063 L 176 180.063 L 176 153.688 L 173 153.688 L 173 129.5 L 145.438 129.5 L 145.438 132.5 L 120.063 132.5 L 120.063 129.5 L 92.5 129.5 L 92.5 153.688 L 89.5 153.688 L 89.5 180.063 L 92.5 180.063 L 92.5 205.438 L 89.5 205.438 L 89.5 231.813 L 92.5 231.813 L 92.5 256 L 120.063 256 L 120.063 253 Z" id="left_outsideCutPath" stroke="#FF0000" stroke-width="0.1" style="stroke:#FF0000;stroke-width:0.1" vector-effect="non-scaling-stroke"/><path d="M 138.904 190.026 L 138.904 191.115 L 136.547 191.115 L 136.547 199.284 L 135.145 199.284 L 135.145 191.115 L 133.489 191.115 L 133.489 190.482 L 135.145 189.975 L 135.145 189.46 Q 135.145 186.047 138.127 186.047 A 4.516 4.516 0 0 1 138.766 186.096 Q 139.077 186.14 139.422 186.226 A 9.077 9.077 0 0 1 139.85 186.343 L 139.487 187.466 Q 138.911 187.28 138.454 187.226 A 3.016 3.016 0 0 0 138.101 187.204 A 1.891 1.891 0 0 0 137.645 187.256 A 1.214 1.214 0 0 0 136.927 187.732 Q 136.582 188.211 136.55 189.215 A 6.621 6.621 0 0 0 136.547 189.426 L 136.547 190.026 L 138.904 190.026 Z M 132.34 194.021 L 132.34 194.908 L 125.963 194.908 A 5.628 5.628 0 0 0 126.061 195.85 Q 126.162 196.364 126.365 196.769 A 2.633 2.633 0 0 0 126.786 197.383 A 2.548 2.548 0 0 0 128.124 198.137 A 3.861 3.861 0 0 0 128.987 198.228 A 7.406 7.406 0 0 0 131.76 197.678 A 8.486 8.486 0 0 0 131.943 197.603 L 131.943 198.853 A 8.418 8.418 0 0 1 131.176 199.143 A 6.438 6.438 0 0 1 130.537 199.313 Q 130.021 199.422 129.34 199.446 A 11.424 11.424 0 0 1 128.936 199.453 Q 126.883 199.453 125.697 198.203 A 4.127 4.127 0 0 1 124.709 196.39 Q 124.538 195.747 124.514 194.984 A 8.01 8.01 0 0 1 124.51 194.731 Q 124.51 192.492 125.612 191.174 A 3.593 3.593 0 0 1 128.231 189.868 A 4.957 4.957 0 0 1 128.573 189.857 A 4.272 4.272 0 0 1 129.776 190.018 A 3.251 3.251 0 0 1 131.327 191.001 A 3.921 3.921 0 0 1 132.215 192.793 A 5.707 5.707 0 0 1 132.34 194.021 Z M 144.851 198.127 L 144.851 199.199 A 1.379 1.379 0 0 1 144.687 199.264 Q 144.513 199.322 144.263 199.367 A 5.245 5.245 0 0 1 144.179 199.381 Q 143.736 199.453 143.381 199.453 Q 140.695 199.453 140.695 196.623 L 140.695 191.115 L 139.368 191.115 L 139.368 190.439 L 140.695 189.857 L 141.286 187.88 L 142.097 187.88 L 142.097 190.026 L 144.783 190.026 L 144.783 191.115 L 142.097 191.115 L 142.097 196.564 Q 142.097 197.151 142.293 197.547 A 1.36 1.36 0 0 0 142.494 197.848 A 1.303 1.303 0 0 0 143.295 198.274 A 1.874 1.874 0 0 0 143.584 198.295 A 4.605 4.605 0 0 0 144.258 198.247 A 4.245 4.245 0 0 0 144.302 198.241 Q 144.648 198.186 144.851 198.127 Z M 122.052 186.14 L 122.052 199.284 L 120.649 199.284 L 120.649 186.14 L 122.052 186.14 Z M 125.996 193.768 L 130.837 193.768 A 4.778 4.778 0 0 0 130.779 192.999 Q 130.652 192.221 130.245 191.736 A 1.921 1.921 0 0 0 129.088 191.078 A 2.882 2.882 0 0 0 128.556 191.031 Q 127.441 191.031 126.778 191.757 A 2.77 2.77 0 0 0 126.227 192.686 Q 126.087 193.068 126.024 193.528 A 5.297 5.297 0 0 0 125.996 193.768 Z" id="left_labelLayer" stroke="#777777" fill="#777777" style="stroke:#777777;fill:#777777" vector-effect="non-scaling-stroke"/><path d="M 235.438 253 L 262.5 253 L 262.5 225.938 L 265.5 225.938 L 265.5 199.563 L 262.5 199.563 L 262.5 172.5 L 235.438 172.5 L 235.438 169.5 L 209.063 169.5 L 209.063 172.5 L 182 172.5 L 182 199.563 L 179 199.563 L 179 225.938 L 182 225.938 L 182 253 L 209.063 253 L 209.063 256 L 235.438 256 L 235.438 253 Z" id="top_outsideCutPath" stroke="#FF0000" stroke-width="0.1" style="stroke:#FF0000;stroke-width:0.1" vector-effect="non-scaling-stroke"/><path d="M 228.467 215.183 L 228.366 215.183 A 13.27 13.27 0 0 1 228.453 216.163 A 11.12 11.12 0 0 1 228.467 216.72 L 228.467 220.53 L 227.065 220.53 L 227.065 207.116 L 228.205 207.116 L 228.4 208.383 L 228.467 208.383 Q 229.008 207.623 229.726 207.285 A 3.512 3.512 0 0 1 230.732 206.99 A 4.545 4.545 0 0 1 231.373 206.947 A 4.298 4.298 0 0 1 232.587 207.109 A 3.177 3.177 0 0 1 234.215 208.205 A 4.21 4.21 0 0 1 234.934 209.608 Q 235.216 210.529 235.216 211.736 Q 235.216 214.017 234.199 215.28 A 3.32 3.32 0 0 1 231.839 216.521 A 4.756 4.756 0 0 1 231.373 216.543 Q 230.469 216.543 229.722 216.209 Q 228.974 215.875 228.467 215.183 Z M 214.766 215.217 L 214.766 216.289 A 1.379 1.379 0 0 1 214.602 216.354 Q 214.428 216.412 214.178 216.457 A 5.245 5.245 0 0 1 214.094 216.471 Q 213.651 216.543 213.296 216.543 Q 210.61 216.543 210.61 213.713 L 210.61 208.205 L 209.283 208.205 L 209.283 207.53 L 210.61 206.947 L 211.201 204.97 L 212.012 204.97 L 212.012 207.116 L 214.698 207.116 L 214.698 208.205 L 212.012 208.205 L 212.012 213.654 Q 212.012 214.241 212.208 214.637 A 1.36 1.36 0 0 0 212.409 214.938 A 1.303 1.303 0 0 0 213.21 215.364 A 1.874 1.874 0 0 0 213.499 215.386 A 4.605 4.605 0 0 0 214.173 215.337 A 4.245 4.245 0 0 0 214.217 215.331 Q 214.563 215.276 214.766 215.217 Z M 223.466 215.272 A 3.912 3.912 0 0 0 223.932 214.632 Q 224.607 213.478 224.607 211.736 A 8.23 8.23 0 0 0 224.604 211.514 Q 224.583 210.743 224.416 210.088 A 4.366 4.366 0 0 0 223.462 208.239 A 3.671 3.671 0 0 0 221.758 207.14 A 4.712 4.712 0 0 0 220.375 206.947 A 5.446 5.446 0 0 0 219.396 207.031 A 3.709 3.709 0 0 0 217.232 208.21 Q 216.1 209.472 216.1 211.736 A 7.015 7.015 0 0 0 216.188 212.873 A 5.187 5.187 0 0 0 216.624 214.287 A 4.609 4.609 0 0 0 216.726 214.487 A 3.796 3.796 0 0 0 218.111 215.96 A 3.905 3.905 0 0 0 219.007 216.358 A 4.503 4.503 0 0 0 220.316 216.543 A 5.445 5.445 0 0 0 221.266 216.463 A 3.738 3.738 0 0 0 223.466 215.272 Z M 217.553 211.736 A 7.101 7.101 0 0 0 217.621 212.751 Q 217.695 213.266 217.852 213.683 A 2.942 2.942 0 0 0 218.263 214.439 A 2.298 2.298 0 0 0 219.76 215.321 A 3.483 3.483 0 0 0 220.349 215.369 A 3.257 3.257 0 0 0 221.209 215.262 A 2.267 2.267 0 0 0 222.44 214.444 A 3.01 3.01 0 0 0 222.909 213.531 Q 223.154 212.781 223.154 211.736 A 6.997 6.997 0 0 0 223.088 210.739 Q 223.014 210.232 222.86 209.821 A 2.887 2.887 0 0 0 222.44 209.054 A 2.307 2.307 0 0 0 221.006 208.199 A 3.537 3.537 0 0 0 220.332 208.138 A 3.337 3.337 0 0 0 219.502 208.235 A 2.233 2.233 0 0 0 218.254 209.042 Q 217.75 209.692 217.608 210.803 A 7.41 7.41 0 0 0 217.553 211.736 Z M 228.467 211.424 L 228.467 211.736 A 9.272 9.272 0 0 0 228.513 212.695 Q 228.64 213.911 229.118 214.528 A 2.034 2.034 0 0 0 230.15 215.225 Q 230.609 215.369 231.204 215.369 A 2.363 2.363 0 0 0 232.123 215.196 Q 232.69 214.959 233.084 214.397 A 3.39 3.39 0 0 0 233.548 213.407 Q 233.683 212.952 233.733 212.407 A 7.471 7.471 0 0 0 233.764 211.719 A 7.076 7.076 0 0 0 233.697 210.716 Q 233.624 210.207 233.471 209.794 A 2.973 2.973 0 0 0 233.084 209.063 Q 232.404 208.138 231.17 208.138 A 4.04 4.04 0 0 0 230.415 208.203 Q 229.995 208.284 229.672 208.461 A 1.853 1.853 0 0 0 229.118 208.923 A 2.402 2.402 0 0 0 228.742 209.608 Q 228.504 210.254 228.472 211.209 A 8.924 8.924 0 0 0 228.467 211.424 Z" id="top_labelLayer" stroke="#777777" fill="#777777" style="stroke:#777777;fill:#777777" vector-effect="non-scaling-stroke"/><path d="M 30.563 123.5 L 55.938 123.5 L 55.938 126.5 L 86.5 126.5 L 86.5 101.813 L 83.5 101.813 L 83.5 76.438 L 86.5 76.438 L 86.5 50.063 L 83.5 50.063 L 83.5 24.688 L 86.5 24.688 L 86.5 0 L 55.938 0 L 55.938 3 L 30.563 3 L 30.563 0 L 0 0 L 0 24.688 L 3 24.688 L 3 50.063 L 0 50.063 L 0 76.438 L 3 76.438 L 3 101.813 L 0 101.813 L 0 126.5 L 30.563 126.5 L 30.563 123.5 Z" id="back_outsideCutPath" stroke="#FF0000" stroke-width="0.1" style="stroke:#FF0000;stroke-width:0.1" vector-effect="non-scaling-stroke"/><path d="M 55.093 64.998 L 55.161 64.998 Q 55.524 64.483 56.267 63.647 L 59.258 60.479 L 60.922 60.479 L 57.171 64.424 L 61.184 69.737 L 59.486 69.737 L 56.217 65.362 L 55.161 66.274 L 55.161 69.737 L 53.775 69.737 L 53.775 56.593 L 55.161 56.593 L 55.161 63.562 A 9.344 9.344 0 0 1 55.156 63.826 Q 55.144 64.27 55.093 64.998 Z M 26.719 68.546 L 26.617 68.546 L 26.322 69.737 L 25.316 69.737 L 25.316 56.593 L 26.719 56.593 L 26.719 59.787 A 29.236 29.236 0 0 1 26.703 60.774 Q 26.686 61.273 26.651 61.713 L 26.719 61.713 A 3.188 3.188 0 0 1 29.046 60.361 A 4.789 4.789 0 0 1 29.625 60.327 A 4.286 4.286 0 0 1 30.831 60.488 A 3.208 3.208 0 0 1 32.459 61.573 Q 33.267 62.571 33.428 64.232 A 9.001 9.001 0 0 1 33.468 65.1 Q 33.468 67.381 32.45 68.643 A 3.32 3.32 0 0 1 30.091 69.884 A 4.756 4.756 0 0 1 29.625 69.906 Q 28.721 69.906 27.973 69.573 Q 27.226 69.239 26.719 68.546 Z M 42.65 69.737 L 41.611 69.737 L 41.332 68.42 L 41.265 68.42 Q 40.776 69.034 40.289 69.368 A 2.584 2.584 0 0 1 39.884 69.598 Q 39.316 69.852 38.516 69.897 A 6.311 6.311 0 0 1 38.165 69.906 A 4.303 4.303 0 0 1 37.289 69.823 Q 36.754 69.711 36.343 69.452 A 2.415 2.415 0 0 1 36.006 69.197 A 2.305 2.305 0 0 1 35.311 67.981 A 3.528 3.528 0 0 1 35.225 67.178 A 2.426 2.426 0 0 1 36.605 64.888 Q 37.633 64.341 39.426 64.25 A 13.697 13.697 0 0 1 39.711 64.238 L 41.282 64.188 L 41.282 63.613 A 4.028 4.028 0 0 0 41.243 63.031 Q 41.199 62.733 41.107 62.494 A 1.565 1.565 0 0 0 40.813 62.004 A 1.423 1.423 0 0 0 40.23 61.624 Q 39.997 61.539 39.707 61.506 A 3.465 3.465 0 0 0 39.314 61.484 A 4.565 4.565 0 0 0 38.263 61.615 Q 37.528 61.789 36.695 62.194 L 36.264 61.121 A 6.465 6.465 0 0 1 37.512 60.608 A 7.359 7.359 0 0 1 37.764 60.538 A 6.494 6.494 0 0 1 39.398 60.327 A 5.922 5.922 0 0 1 40.3 60.391 Q 40.764 60.463 41.134 60.615 A 2.387 2.387 0 0 1 41.852 61.062 Q 42.478 61.638 42.613 62.76 A 5.518 5.518 0 0 1 42.65 63.419 L 42.65 69.737 Z M 51.714 60.792 L 51.283 61.983 A 6.238 6.238 0 0 0 50.607 61.758 A 7.45 7.45 0 0 0 50.27 61.674 A 5.792 5.792 0 0 0 49.829 61.593 Q 49.542 61.552 49.298 61.552 A 3.11 3.11 0 0 0 48.035 61.789 Q 46.711 62.373 46.512 64.391 A 7.748 7.748 0 0 0 46.477 65.151 A 6.791 6.791 0 0 0 46.544 66.139 Q 46.618 66.641 46.773 67.048 A 2.909 2.909 0 0 0 47.165 67.769 A 2.227 2.227 0 0 0 48.608 68.631 A 3.393 3.393 0 0 0 49.205 68.681 A 5.87 5.87 0 0 0 50.825 68.446 A 7.248 7.248 0 0 0 51.579 68.183 L 51.579 69.425 Q 50.65 69.906 49.239 69.906 A 5.241 5.241 0 0 1 47.964 69.76 A 3.554 3.554 0 0 1 46.126 68.669 Q 45.174 67.6 45.044 65.765 A 8.479 8.479 0 0 1 45.024 65.167 A 7.737 7.737 0 0 1 45.144 63.761 Q 45.39 62.43 46.143 61.577 A 3.631 3.631 0 0 1 48.131 60.434 A 5.504 5.504 0 0 1 49.332 60.31 A 6.328 6.328 0 0 1 50.667 60.454 A 6.999 6.999 0 0 1 51.056 60.549 Q 51.446 60.656 51.706 60.787 A 2.078 2.078 0 0 1 51.714 60.792 Z M 29.422 61.501 A 3.94 3.94 0 0 0 28.659 61.57 Q 28.224 61.656 27.894 61.849 A 1.865 1.865 0 0 0 27.352 62.325 A 2.4 2.4 0 0 0 27.005 62.987 Q 26.77 63.644 26.728 64.643 A 10.803 10.803 0 0 0 26.719 65.1 A 9.272 9.272 0 0 0 26.765 66.058 Q 26.891 67.274 27.369 67.892 A 2.034 2.034 0 0 0 28.401 68.588 Q 28.861 68.732 29.456 68.732 A 2.795 2.795 0 0 0 30.25 68.626 A 2.017 2.017 0 0 0 31.382 67.79 A 3.219 3.219 0 0 0 31.78 66.929 Q 31.905 66.52 31.963 66.024 A 8.035 8.035 0 0 0 32.015 65.083 Q 32.015 63.275 31.382 62.388 A 2.045 2.045 0 0 0 30.08 61.564 A 3.243 3.243 0 0 0 29.422 61.501 Z M 41.248 66.021 L 41.248 65.184 L 39.846 65.243 Q 38.173 65.303 37.434 65.763 A 1.496 1.496 0 0 0 36.721 66.848 A 2.215 2.215 0 0 0 36.695 67.195 A 2.004 2.004 0 0 0 36.744 67.655 Q 36.828 68.008 37.051 68.251 A 1.249 1.249 0 0 0 37.155 68.352 Q 37.553 68.695 38.225 68.742 A 3.154 3.154 0 0 0 38.444 68.749 A 3.861 3.861 0 0 0 39.277 68.664 Q 39.858 68.536 40.287 68.213 A 2.341 2.341 0 0 0 40.5 68.031 Q 41.244 67.317 41.248 66.035 A 4.405 4.405 0 0 0 41.248 66.021 Z" id="back_labelLayer" stroke="#777777" fill="#777777" style="stroke:#777777;fill:#777777" vector-effect="non-scaling-stroke"/><path d="M 120.063 123.5 L 145.438 123.5 L 145.438 126.5 L 173 126.5 L 173 102.313 L 176 102.313 L 176 75.938 L 173 75.938 L 173 50.563 L 176 50.563 L 176 24.188 L 173 24.188 L 173 0 L 145.438 0 L 145.438 3 L 120.063 3 L 120.063 0 L 92.5 0 L 92.5 24.188 L 89.5 24.188 L 89.5 50.563 L 92.5 50.563 L 92.5 75.938 L 89.5 75.938 L 89.5 102.313 L 92.5 102.313 L 92.5 126.5 L 120.063 126.5 L 120.063 123.5 Z" id="right_outsideCutPath" stroke="#FF0000" stroke-width="0.1" style="stroke:#FF0000;stroke-width:0.1" vector-effect="non-scaling-stroke"/><path d="M 143.508 67.744 L 142.105 67.744 L 142.105 61.755 Q 142.105 61.033 141.896 60.545 A 1.668 1.668 0 0 0 141.59 60.065 A 1.581 1.581 0 0 0 140.942 59.652 Q 140.534 59.508 139.977 59.508 Q 139.022 59.508 138.405 59.846 A 1.963 1.963 0 0 0 137.844 60.302 Q 137.23 61.028 137.177 62.601 A 9.05 9.05 0 0 0 137.172 62.904 L 137.172 67.744 L 135.77 67.744 L 135.77 54.6 L 137.172 54.6 L 137.172 58.579 A 12.614 12.614 0 0 1 137.163 59.063 Q 137.148 59.467 137.105 59.77 L 137.189 59.77 A 2.802 2.802 0 0 1 138.171 58.825 A 3.423 3.423 0 0 1 138.367 58.718 A 3.6 3.6 0 0 1 139.549 58.368 A 4.551 4.551 0 0 1 140.112 58.334 A 5.689 5.689 0 0 1 141.068 58.409 Q 141.576 58.495 141.978 58.683 A 2.527 2.527 0 0 1 142.659 59.14 A 2.442 2.442 0 0 1 143.261 60.086 Q 143.405 60.479 143.465 60.967 A 6.064 6.064 0 0 1 143.508 61.704 L 143.508 67.744 Z M 130.668 58.486 L 133.869 58.486 L 133.869 59.373 L 132.154 59.575 A 2.279 2.279 0 0 1 132.352 59.869 Q 132.438 60.021 132.517 60.202 A 4.323 4.323 0 0 1 132.577 60.348 A 2.698 2.698 0 0 1 132.737 60.993 A 3.464 3.464 0 0 1 132.763 61.425 Q 132.763 62.785 131.833 63.596 Q 130.904 64.407 129.282 64.407 A 4.507 4.507 0 0 1 128.761 64.378 A 3.806 3.806 0 0 1 128.505 64.34 Q 127.994 64.61 127.775 64.96 A 1.055 1.055 0 0 0 127.61 65.531 A 0.727 0.727 0 0 0 127.647 65.769 Q 127.714 65.964 127.903 66.081 A 0.778 0.778 0 0 0 127.922 66.092 A 0.984 0.984 0 0 0 128.14 66.182 Q 128.369 66.249 128.717 66.267 A 5.334 5.334 0 0 0 128.995 66.274 L 130.634 66.274 Q 131.637 66.274 132.33 66.556 A 2.534 2.534 0 0 1 132.944 66.908 A 2.051 2.051 0 0 1 133.707 68.214 A 3.081 3.081 0 0 1 133.751 68.749 A 3.036 3.036 0 0 1 133.578 69.799 Q 133.298 70.564 132.565 71.061 A 3.334 3.334 0 0 1 132.518 71.093 Q 131.284 71.9 128.919 71.9 A 7.856 7.856 0 0 1 127.865 71.834 Q 127.33 71.761 126.894 71.609 A 3.259 3.259 0 0 1 126.119 71.224 A 2.235 2.235 0 0 1 125.398 70.442 Q 125.135 69.953 125.135 69.315 Q 125.135 68.47 125.675 67.854 A 2.449 2.449 0 0 1 126.516 67.241 A 3.47 3.47 0 0 1 127.196 67.017 A 1.455 1.455 0 0 1 126.631 66.561 A 1.727 1.727 0 0 1 126.6 66.519 A 1.3 1.3 0 0 1 126.362 65.816 A 1.61 1.61 0 0 1 126.36 65.733 Q 126.36 65.227 126.63 64.846 A 2.007 2.007 0 0 1 126.895 64.548 Q 127.133 64.325 127.483 64.112 Q 126.765 63.816 126.313 63.106 A 2.899 2.899 0 0 1 125.868 61.709 A 3.538 3.538 0 0 1 125.861 61.484 A 4.051 4.051 0 0 1 125.968 60.526 A 2.665 2.665 0 0 1 126.774 59.14 A 2.978 2.978 0 0 1 127.917 58.51 Q 128.371 58.371 128.917 58.332 A 6.193 6.193 0 0 1 129.358 58.317 Q 130.085 58.317 130.668 58.486 Z M 150.646 66.587 L 150.646 67.659 A 1.379 1.379 0 0 1 150.482 67.724 Q 150.307 67.782 150.058 67.827 A 5.245 5.245 0 0 1 149.974 67.841 Q 149.53 67.913 149.176 67.913 Q 146.489 67.913 146.489 65.083 L 146.489 59.575 L 145.163 59.575 L 145.163 58.9 L 146.489 58.317 L 147.081 56.34 L 147.892 56.34 L 147.892 58.486 L 150.578 58.486 L 150.578 59.575 L 147.892 59.575 L 147.892 65.024 Q 147.892 65.611 148.088 66.007 A 1.36 1.36 0 0 0 148.289 66.308 A 1.303 1.303 0 0 0 149.09 66.734 A 1.874 1.874 0 0 0 149.378 66.756 A 4.605 4.605 0 0 0 150.053 66.707 A 4.245 4.245 0 0 0 150.096 66.701 Q 150.443 66.646 150.646 66.587 Z M 120.185 58.418 L 119.99 59.719 Q 119.416 59.592 118.977 59.592 Q 117.853 59.592 117.055 60.505 A 3.202 3.202 0 0 0 116.282 62.303 A 4.256 4.256 0 0 0 116.257 62.777 L 116.257 67.744 L 114.854 67.744 L 114.854 58.486 L 116.012 58.486 L 116.172 60.2 L 116.24 60.2 A 4.735 4.735 0 0 1 116.769 59.444 A 3.617 3.617 0 0 1 117.482 58.807 Q 118.208 58.317 119.078 58.317 A 6.438 6.438 0 0 1 119.654 58.341 A 4.698 4.698 0 0 1 120.185 58.418 Z M 123.319 58.486 L 123.319 67.744 L 121.916 67.744 L 121.916 58.486 L 123.319 58.486 Z M 130.186 67.533 L 128.505 67.533 A 3.223 3.223 0 0 0 127.924 67.582 Q 127.595 67.642 127.334 67.777 A 1.642 1.642 0 0 0 127.019 67.989 Q 126.486 68.445 126.486 69.298 A 1.408 1.408 0 0 0 126.579 69.821 Q 126.713 70.157 127.037 70.384 A 1.645 1.645 0 0 0 127.12 70.439 Q 127.75 70.825 128.925 70.827 A 7.224 7.224 0 0 0 128.936 70.827 A 9.427 9.427 0 0 0 129.857 70.785 Q 130.779 70.695 131.359 70.406 A 2.329 2.329 0 0 0 131.55 70.299 A 2.045 2.045 0 0 0 132.025 69.902 A 1.533 1.533 0 0 0 132.399 68.867 A 1.897 1.897 0 0 0 132.365 68.491 Q 132.321 68.274 132.221 68.112 A 0.884 0.884 0 0 0 131.935 67.824 A 1.33 1.33 0 0 0 131.619 67.687 Q 131.119 67.533 130.186 67.533 Z M 127.247 61.451 A 2.737 2.737 0 0 0 127.303 62.024 Q 127.379 62.38 127.559 62.647 A 1.5 1.5 0 0 0 127.796 62.921 A 1.812 1.812 0 0 0 128.525 63.317 Q 128.803 63.397 129.135 63.414 A 3.611 3.611 0 0 0 129.325 63.419 A 3.055 3.055 0 0 0 130.124 63.323 Q 131.04 63.075 131.286 62.177 A 2.84 2.84 0 0 0 131.377 61.425 A 3.015 3.015 0 0 0 131.274 60.6 Q 131.01 59.674 130.069 59.428 A 3.05 3.05 0 0 0 129.299 59.339 A 2.942 2.942 0 0 0 128.7 59.396 Q 128.136 59.513 127.779 59.871 A 1.683 1.683 0 0 0 127.371 60.557 Q 127.286 60.823 127.259 61.145 A 3.689 3.689 0 0 0 127.247 61.451 Z M 122.035 55.272 A 0.656 0.656 0 0 0 121.89 55.477 Q 121.798 55.677 121.798 55.977 A 1.656 1.656 0 0 0 121.805 56.135 Q 121.819 56.277 121.858 56.392 A 0.724 0.724 0 0 0 122.035 56.682 Q 122.271 56.914 122.626 56.914 Q 122.964 56.914 123.209 56.682 Q 123.379 56.521 123.431 56.243 A 1.451 1.451 0 0 0 123.454 55.977 A 1.604 1.604 0 0 0 123.447 55.825 Q 123.434 55.687 123.395 55.573 A 0.708 0.708 0 0 0 123.209 55.276 A 0.826 0.826 0 0 0 122.626 55.048 A 1.07 1.07 0 0 0 122.555 55.05 A 0.811 0.811 0 0 0 122.035 55.272 Z" id="right_labelLayer" stroke="#777777" fill="#777777" style="stroke:#777777;fill:#777777" vector-effect="non-scaling-stroke"/><path d="M 235.438 163.5 L 262.5 163.5 L 262.5 136.438 L 265.5 136.438 L 265.5 110.063 L 262.5 110.063 L 262.5 83 L 235.438 83 L 235.438 80 L 209.063 80 L 209.063 83 L 182 83 L 182 110.063 L 179 110.063 L 179 136.438 L 182 136.438 L 182 163.5 L 209.063 163.5 L 209.063 166.5 L 235.438 166.5 L 235.438 163.5 Z" id="bottom_outsideCutPath" stroke="#FF0000" stroke-width="0.1" style="stroke:#FF0000;stroke-width:0.1" vector-effect="non-scaling-stroke"/><path d="M 250.709 129.737 L 249.307 129.737 L 249.307 123.714 A 4.137 4.137 0 0 0 249.265 123.106 Q 249.219 122.796 249.121 122.545 A 1.695 1.695 0 0 0 248.834 122.054 A 1.476 1.476 0 0 0 248.148 121.611 Q 247.808 121.501 247.364 121.501 Q 246.446 121.501 245.864 121.871 A 1.857 1.857 0 0 0 245.429 122.253 Q 244.807 123.001 244.804 124.553 A 7.842 7.842 0 0 0 244.804 124.568 L 244.804 129.737 L 243.402 129.737 L 243.402 123.714 A 4.137 4.137 0 0 0 243.36 123.106 Q 243.314 122.796 243.216 122.545 A 1.695 1.695 0 0 0 242.929 122.054 A 1.471 1.471 0 0 0 242.252 121.615 Q 242.009 121.535 241.711 121.511 A 3.284 3.284 0 0 0 241.451 121.501 A 3.483 3.483 0 0 0 240.73 121.571 Q 239.951 121.736 239.52 122.291 Q 238.908 123.081 238.908 124.88 L 238.908 129.737 L 237.506 129.737 L 237.506 120.479 L 238.646 120.479 L 238.874 121.746 L 238.942 121.746 A 2.756 2.756 0 0 1 240.061 120.69 Q 240.783 120.31 241.679 120.31 A 4.591 4.591 0 0 1 242.712 120.418 Q 243.348 120.565 243.791 120.913 A 2.394 2.394 0 0 1 244.517 121.881 L 244.585 121.881 A 2.928 2.928 0 0 1 245.687 120.786 A 3.517 3.517 0 0 1 245.784 120.732 A 3.549 3.549 0 0 1 247.086 120.337 A 4.425 4.425 0 0 1 247.575 120.31 A 4.874 4.874 0 0 1 248.459 120.385 Q 248.95 120.476 249.334 120.677 A 2.311 2.311 0 0 1 249.927 121.117 A 2.415 2.415 0 0 1 250.446 121.965 Q 250.586 122.339 250.651 122.804 A 6.432 6.432 0 0 1 250.709 123.697 L 250.709 129.737 Z M 195.193 128.546 L 195.092 128.546 L 194.796 129.737 L 193.791 129.737 L 193.791 116.593 L 195.193 116.593 L 195.193 119.786 A 29.236 29.236 0 0 1 195.178 120.774 Q 195.161 121.272 195.126 121.712 L 195.193 121.712 A 3.188 3.188 0 0 1 197.52 120.361 A 4.789 4.789 0 0 1 198.099 120.327 A 4.286 4.286 0 0 1 199.305 120.488 A 3.208 3.208 0 0 1 200.933 121.573 Q 201.742 122.571 201.903 124.232 A 9.001 9.001 0 0 1 201.943 125.1 Q 201.943 127.38 200.925 128.643 A 3.32 3.32 0 0 1 198.565 129.884 A 4.756 4.756 0 0 1 198.099 129.906 Q 197.195 129.906 196.448 129.573 Q 195.7 129.239 195.193 128.546 Z M 219.099 128.58 L 219.099 129.653 A 1.379 1.379 0 0 1 218.936 129.718 Q 218.761 129.776 218.511 129.82 A 5.245 5.245 0 0 1 218.428 129.834 Q 217.984 129.906 217.629 129.906 Q 214.943 129.906 214.943 127.076 L 214.943 121.569 L 213.617 121.569 L 213.617 120.893 L 214.943 120.31 L 215.534 118.333 L 216.345 118.333 L 216.345 120.479 L 219.032 120.479 L 219.032 121.569 L 216.345 121.569 L 216.345 127.017 Q 216.345 127.605 216.541 128.001 A 1.36 1.36 0 0 0 216.742 128.301 A 1.303 1.303 0 0 0 217.543 128.728 A 1.874 1.874 0 0 0 217.832 128.749 A 4.605 4.605 0 0 0 218.507 128.701 A 4.245 4.245 0 0 0 218.55 128.694 Q 218.896 128.639 219.099 128.58 Z M 225.207 128.58 L 225.207 129.653 A 1.379 1.379 0 0 1 225.043 129.718 Q 224.868 129.776 224.619 129.82 A 5.245 5.245 0 0 1 224.535 129.834 Q 224.091 129.906 223.737 129.906 Q 221.05 129.906 221.05 127.076 L 221.05 121.569 L 219.724 121.569 L 219.724 120.893 L 221.05 120.31 L 221.642 118.333 L 222.453 118.333 L 222.453 120.479 L 225.139 120.479 L 225.139 121.569 L 222.453 121.569 L 222.453 127.017 Q 222.453 127.605 222.649 128.001 A 1.36 1.36 0 0 0 222.85 128.301 A 1.303 1.303 0 0 0 223.651 128.728 A 1.874 1.874 0 0 0 223.939 128.749 A 4.605 4.605 0 0 0 224.614 128.701 A 4.245 4.245 0 0 0 224.657 128.694 Q 225.004 128.639 225.207 128.58 Z M 211.243 128.635 A 3.912 3.912 0 0 0 211.709 127.995 Q 212.384 126.841 212.384 125.1 A 8.23 8.23 0 0 0 212.381 124.877 Q 212.36 124.106 212.193 123.452 A 4.366 4.366 0 0 0 211.239 121.603 A 3.671 3.671 0 0 0 209.535 120.503 A 4.712 4.712 0 0 0 208.151 120.31 A 5.446 5.446 0 0 0 207.173 120.394 A 3.709 3.709 0 0 0 205.009 121.573 Q 203.877 122.836 203.877 125.1 A 7.015 7.015 0 0 0 203.965 126.236 A 5.187 5.187 0 0 0 204.401 127.651 A 4.609 4.609 0 0 0 204.503 127.851 A 3.796 3.796 0 0 0 205.888 129.323 A 3.905 3.905 0 0 0 206.784 129.722 A 4.503 4.503 0 0 0 208.092 129.906 A 5.445 5.445 0 0 0 209.043 129.827 A 3.738 3.738 0 0 0 211.243 128.635 Z M 233.907 128.635 A 3.912 3.912 0 0 0 234.373 127.995 Q 235.048 126.841 235.048 125.1 A 8.23 8.23 0 0 0 235.045 124.877 Q 235.024 124.106 234.857 123.452 A 4.366 4.366 0 0 0 233.903 121.603 A 3.671 3.671 0 0 0 232.199 120.503 A 4.712 4.712 0 0 0 230.815 120.31 A 5.446 5.446 0 0 0 229.837 120.394 A 3.709 3.709 0 0 0 227.673 121.573 Q 226.541 122.836 226.541 125.1 A 7.015 7.015 0 0 0 226.629 126.236 A 5.187 5.187 0 0 0 227.065 127.651 A 4.609 4.609 0 0 0 227.167 127.851 A 3.796 3.796 0 0 0 228.552 129.323 A 3.905 3.905 0 0 0 229.448 129.722 A 4.503 4.503 0 0 0 230.756 129.906 A 5.445 5.445 0 0 0 231.707 129.827 A 3.738 3.738 0 0 0 233.907 128.635 Z M 205.33 125.1 A 7.101 7.101 0 0 0 205.398 126.114 Q 205.472 126.629 205.629 127.046 A 2.942 2.942 0 0 0 206.04 127.803 A 2.298 2.298 0 0 0 207.536 128.684 A 3.483 3.483 0 0 0 208.126 128.732 A 3.257 3.257 0 0 0 208.985 128.625 A 2.267 2.267 0 0 0 210.217 127.807 A 3.01 3.01 0 0 0 210.686 126.894 Q 210.931 126.144 210.931 125.1 A 6.997 6.997 0 0 0 210.864 124.103 Q 210.791 123.595 210.637 123.184 A 2.887 2.887 0 0 0 210.217 122.418 A 2.307 2.307 0 0 0 208.783 121.562 A 3.537 3.537 0 0 0 208.109 121.501 A 3.337 3.337 0 0 0 207.278 121.599 A 2.233 2.233 0 0 0 206.031 122.405 Q 205.527 123.056 205.385 124.166 A 7.41 7.41 0 0 0 205.33 125.1 Z M 227.994 125.1 A 7.101 7.101 0 0 0 228.062 126.114 Q 228.136 126.629 228.293 127.046 A 2.942 2.942 0 0 0 228.704 127.803 A 2.298 2.298 0 0 0 230.2 128.684 A 3.483 3.483 0 0 0 230.79 128.732 A 3.257 3.257 0 0 0 231.649 128.625 A 2.267 2.267 0 0 0 232.881 127.807 A 3.01 3.01 0 0 0 233.35 126.894 Q 233.595 126.144 233.595 125.1 A 6.997 6.997 0 0 0 233.528 124.103 Q 233.455 123.595 233.301 123.184 A 2.887 2.887 0 0 0 232.881 122.418 A 2.307 2.307 0 0 0 231.447 121.562 A 3.537 3.537 0 0 0 230.773 121.501 A 3.337 3.337 0 0 0 229.942 121.599 A 2.233 2.233 0 0 0 228.695 122.405 Q 228.191 123.056 228.049 124.166 A 7.41 7.41 0 0 0 227.994 125.1 Z M 197.896 121.501 A 3.94 3.94 0 0 0 197.133 121.57 Q 196.699 121.656 196.369 121.849 A 1.865 1.865 0 0 0 195.827 122.325 A 2.4 2.4 0 0 0 195.479 122.987 Q 195.245 123.644 195.203 124.643 A 10.803 10.803 0 0 0 195.193 125.1 A 9.272 9.272 0 0 0 195.239 126.058 Q 195.366 127.274 195.844 127.892 A 2.034 2.034 0 0 0 196.876 128.588 Q 197.336 128.732 197.93 128.732 A 2.795 2.795 0 0 0 198.724 128.626 A 2.017 2.017 0 0 0 199.856 127.79 A 3.219 3.219 0 0 0 200.255 126.929 Q 200.38 126.52 200.438 126.024 A 8.035 8.035 0 0 0 200.49 125.083 Q 200.49 123.275 199.856 122.388 A 2.045 2.045 0 0 0 198.554 121.564 A 3.243 3.243 0 0 0 197.896 121.501 Z" id="bottom_labelLayer" stroke="#777777" fill="#777777" style="stroke:#777777;fill:#777777" vector-effect="non-scaling-stroke"/></g></svg>