<?xml version="1.0" encoding="UTF-8" standalone="no"?>
<!-- Created with Inkscape (http://www.inkscape.org/) -->

<svg
   width="210mm"
   height="297mm"
   viewBox="0 0 210 297"
   version="1.1"
   id="svg1150"
   inkscape:version="1.1.2 (0a00cf5339, 2022-02-04)"
   sodipodi:docname="triangle.svg"
   xmlns:inkscape="http://www.inkscape.org/namespaces/inkscape"
   xmlns:sodipodi="http://sodipodi.sourceforge.net/DTD/sodipodi-0.dtd"
   xmlns="http://www.w3.org/2000/svg"
   xmlns:svg="http://www.w3.org/2000/svg">
  <sodipodi:namedview
     id="namedview1152"
     pagecolor="#ffffff"
     bordercolor="#666666"
     borderopacity="1.0"
     inkscape:pageshadow="2"
     inkscape:pageopacity="0.0"
     inkscape:pagecheckerboard="0"
     inkscape:document-units="mm"
     showgrid="false"
     inkscape:zoom="0.24630192"
     inkscape:cx="-9348.2829"
     inkscape:cy="-9210.2409"
     inkscape:window-width="1920"
     inkscape:window-height="1016"
     inkscape:window-x="0"
     inkscape:window-y="0"
     inkscape:window-maximized="1"
     inkscape:current-layer="layer1"
     showguides="true"
     inkscape:guide-bbox="true">
    <sodipodi:guide
       position="-2631.8478,2809.6091"
       orientation="1,0"
       id="guide1557" />
    <sodipodi:guide
       position="-2743.567,3011.5631"
       orientation="0,-1"
       id="guide1559" />
  </sodipodi:namedview>
  <defs
     id="defs1147" />
  <g
     inkscape:label="Layer 1"
     inkscape:groupmode="layer"
     id="layer1">
    <path
       d="m -2658.1113,-2676.037 a 19.84375,34.89285 0 0 1 29.7656,-30.2407 l 152.1354,151.2026 a 19.84375,34.89285 0 0 1 0,60.481 l -152.1354,151.2023 a 19.84375,34.89285 0 0 1 -29.7656,-30.2405 z"
       fill="#ef9a9a"
       id="path1213-4"
       style="fill:none;stroke:#000000;stroke-width:1;stroke-miterlimit:4;stroke-dasharray:none;stroke-opacity:1" />
    <path
       d="m -2595.8723,-2292.8577 a 34.89285,19.84375 0 0 1 -30.2407,-29.7656 l 151.2026,-152.1354 a 34.89285,19.84375 0 0 1 60.481,0 l 151.2023,152.1354 a 34.89285,19.84375 0 0 1 -30.2405,29.7656 z"
       fill="#ef9a9a"
       id="path1213-4-7"
       style="fill:none;stroke:#000000;stroke-width:1;stroke-miterlimit:4;stroke-dasharray:none;stroke-opacity:1" />
    <path
       d="m -2224.8742,-2372.6942 a 19.84375,34.89285 0 0 1 -29.7656,30.2407 l -152.1354,-151.2026 a 19.84375,34.89285 0 0 1 0,-60.481 l 152.1354,-151.2023 a 19.84375,34.89285 0 0 1 29.7656,30.2405 z"
       fill="#ef9a9a"
       id="path1213-4-6"
       style="fill:none;stroke:#000000;stroke-width:1;stroke-miterlimit:4;stroke-dasharray:none;stroke-opacity:1" />
    <path
       d="m -2291.9556,-2760.0152 a 34.89285,19.84375 0 0 1 30.2407,29.7656 l -151.2026,152.1354 a 34.89285,19.84375 0 0 1 -60.481,0 l -151.2023,-152.1354 a 34.89285,19.84375 0 0 1 30.2405,-29.7656 z"
       fill="#ef9a9a"
       id="path1213-4-7-3"
       style="fill:none;stroke:#000000;stroke-width:1;stroke-miterlimit:4;stroke-dasharray:none;stroke-opacity:1" />
  </g>
</svg>
